<?xml version="1.0" standalone="no"?>
<!DOCTYPE svg PUBLIC "-//W3C//DTD SVG 20010904//EN"
 "http://www.w3.org/TR/2001/REC-SVG-20010904/DTD/svg10.dtd">
<svg version="1.0" xmlns="http://www.w3.org/2000/svg"
 width="1300.000000pt" height="835.000000pt" viewBox="0 0 1300.000000 835.000000"
 preserveAspectRatio="xMidYMid meet">

<g transform="translate(0.000000,835.000000) scale(0.100000,-0.100000)"
fill="#000000" stroke="none">
<path d="M7795 6918 c-34 -20 -43 -34 -38 -61 5 -23 8 -25 25 -16 14 7 23 7
34 -2 18 -15 21 -12 29 34 6 30 4 37 -8 37 -8 0 -17 4 -19 9 -2 6 -11 5 -23
-1z"/>
<path d="M7731 6893 c0 -7 -6 -13 -12 -13 -6 0 -25 -11 -42 -24 -18 -13 -52
-35 -77 -49 -25 -13 -98 -57 -163 -96 -65 -39 -120 -71 -123 -71 -3 0 -31 -17
-62 -38 -31 -21 -100 -62 -152 -92 -52 -30 -96 -57 -98 -62 -2 -4 -7 -8 -12
-8 -5 0 -87 -47 -184 -105 -96 -58 -180 -105 -187 -105 -6 0 -23 -10 -38 -23
-15 -12 -82 -55 -149 -96 -67 -40 -122 -75 -122 -78 0 -2 39 -22 88 -45 48
-22 165 -78 261 -124 96 -47 181 -82 188 -79 8 2 12 1 9 -4 -4 -5 51 -37 122
-71 70 -34 144 -70 164 -81 48 -25 64 -24 119 9 37 22 367 221 419 252 54 34
261 156 290 172 104 59 139 84 155 111 9 16 31 35 49 43 17 8 54 27 81 42 86
47 227 124 295 159 36 19 80 44 98 55 l33 20 -138 69 c-75 38 -143 69 -149 69
-7 0 -19 7 -28 15 -8 9 -32 23 -53 31 -78 33 -162 74 -167 83 -3 5 -18 12 -33
16 -15 3 -31 11 -34 17 -4 5 -18 -1 -35 -15 -16 -14 -27 -27 -24 -30 3 -2 64
-32 135 -67 72 -34 137 -66 145 -71 8 -5 26 -14 40 -19 14 -6 32 -15 40 -20 8
-6 26 -15 40 -20 48 -20 130 -65 130 -71 0 -4 -28 -23 -61 -43 l-62 -37 -45
21 c-24 12 -50 19 -58 16 -9 -3 -11 1 -8 12 4 10 -4 6 -20 -10 -14 -16 -27
-28 -29 -28 -3 0 -101 46 -218 103 -118 57 -249 118 -291 137 -72 32 -77 37
-78 66 0 16 -5 35 -12 42 -8 8 -3 15 21 29 59 32 60 35 51 78 -4 22 -8 34 -9
28z m-153 -395 c-8 -7 -27 -24 -43 -38 -26 -21 -25 -20 4 13 19 20 39 37 44
37 4 0 2 -6 -5 -12z m216 -28 c48 -21 89 -46 92 -55 11 -28 -18 -66 -71 -92
-67 -35 -170 -37 -232 -5 l-41 21 -58 -30 c-43 -23 -65 -29 -88 -25 -26 6 -37
0 -80 -41 l-50 -48 39 45 c21 25 42 46 46 48 4 2 6 9 3 16 -3 8 11 23 33 37
21 13 55 39 75 57 21 19 42 31 47 27 10 -5 72 24 136 65 42 26 52 25 149 -20z
m-1159 -309 c3 -14 10 -39 15 -56 5 -16 7 -40 4 -52 -5 -19 -13 -23 -50 -23
-51 0 -59 9 -45 53 5 17 15 51 21 74 8 34 14 40 30 36 12 -3 22 -17 25 -32z
m625 26 c0 -2 -17 -19 -37 -38 l-38 -34 34 38 c33 34 41 42 41 34z m-80 -80
c0 -2 -15 -16 -32 -33 l-33 -29 29 33 c28 30 36 37 36 29z m-107 -110 c-15
-19 -30 -32 -32 -30 -5 3 49 63 57 63 2 0 -9 -15 -25 -33z m-74 -74 c-18 -21
-35 -40 -36 -42 -2 -2 -6 -2 -9 1 -5 6 65 77 75 78 3 0 -11 -17 -30 -37z m106
27 c-3 -5 3 -10 14 -10 15 0 22 -9 27 -37 3 -21 10 -54 14 -74 7 -33 5 -38
-17 -48 -33 -15 -58 -14 -73 4 -9 11 -8 29 5 82 20 84 23 93 30 93 4 0 3 -4 0
-10z m-192 -115 c-20 -20 -38 -34 -40 -31 -5 5 58 65 69 66 3 0 -10 -16 -29
-35z"/>
<path d="M7658 6412 c-34 -21 -35 -26 -3 -40 73 -33 144 7 75 43 -35 18 -37
18 -72 -3z"/>
<path d="M7475 6400 c-17 -19 -17 -19 9 -7 14 7 26 15 26 20 0 13 -17 7 -35
-13z"/>
<path d="M7956 6815 c-19 -30 -20 -35 -3 -35 19 0 50 37 42 49 -10 17 -21 13
-39 -14z"/>
<path d="M9530 6654 c-104 -62 -130 -85 -130 -118 0 -12 -8 -33 -17 -46 l-18
-25 -6 35 c-5 25 -6 15 -7 -35 0 -38 3 -60 6 -47 11 38 27 20 26 -28 -1 -25 1
-47 5 -50 3 -3 20 -21 36 -40 25 -29 26 -31 4 -12 -29 26 -38 22 -31 -13 6
-34 39 -33 88 5 21 16 43 30 47 30 21 0 119 73 127 94 5 14 6 84 2 162 -6 113
-10 139 -22 142 -9 1 -58 -23 -110 -54z m86 -89 c8 -31 -24 -84 -65 -108 -23
-14 -31 -25 -31 -47 0 -19 -7 -33 -20 -40 -19 -10 -20 -8 -20 77 l0 88 48 27
c59 34 80 35 88 3z"/>
<path d="M9542 6525 c-21 -16 -30 -35 -14 -35 15 1 44 29 40 40 -2 6 -11 5
-26 -5z"/>
<path d="M9352 6278 c2 -67 2 -69 5 -18 2 30 8 59 14 65 6 5 9 5 9 -3 0 -7 5
-12 12 -12 6 0 3 9 -7 20 -10 11 -22 20 -27 20 -4 0 -7 -33 -6 -72z"/>
<path d="M9111 6260 c18 -22 35 -40 38 -40 3 0 17 -9 30 -19 l24 -18 -33 -30
c-40 -36 -36 -66 7 -61 24 3 28 8 31 41 2 20 7 37 13 37 5 0 9 -4 9 -10 0 -5
8 -10 18 -10 9 0 31 -9 48 -19 l32 -19 4 29 c3 16 0 33 -6 38 -12 10 -235 121
-242 121 -3 0 10 -18 27 -40z"/>
<path d="M8915 6229 c-38 -21 -74 -40 -80 -42 -6 -3 -3 -17 8 -35 10 -18 13
-33 8 -37 -11 -6 -34 29 -24 38 3 4 -1 9 -10 13 -9 3 -54 -14 -105 -42 -73
-39 -88 -50 -81 -63 5 -9 23 -47 39 -84 l30 -69 38 22 c20 12 61 36 89 52 29
17 56 34 59 40 4 5 -4 23 -16 40 -16 22 -19 33 -11 41 8 8 11 7 11 -3 1 -8 10
-26 21 -40 21 -24 21 -24 52 -6 18 10 55 30 82 45 72 39 95 55 95 64 0 5 -19
31 -42 58 -51 60 -68 61 -163 8z"/>
<path d="M9350 6138 c0 -35 8 -41 123 -96 59 -29 107 -56 107 -60 0 -5 -15
-16 -32 -26 -18 -9 -48 -26 -67 -36 -33 -19 -35 -19 -72 1 -21 10 -43 19 -49
19 -6 0 -10 -32 -10 -81 0 -72 2 -80 17 -75 9 4 80 45 157 92 78 46 147 88
155 93 28 15 22 31 -18 47 -23 9 -38 21 -34 27 3 6 1 7 -5 3 -6 -4 -65 21
-131 54 -67 33 -125 60 -131 60 -5 0 -10 -10 -10 -22z"/>
<path d="M8547 6038 c-37 -20 -57 -37 -57 -49 0 -10 -6 -24 -13 -31 -8 -7 -12
-19 -9 -26 2 -6 -1 -12 -7 -12 -6 0 -8 -7 -5 -15 4 -8 1 -15 -6 -15 -6 0 -8
-4 -5 -10 3 -5 2 -10 -4 -10 -6 0 -7 -7 -4 -17 5 -12 3 -14 -7 -8 -8 5 -11 4
-6 -3 3 -6 2 -21 -3 -35 -8 -20 -5 -26 19 -41 37 -21 84 -12 77 15 -5 20 47
62 111 88 17 7 32 19 32 26 0 6 -13 48 -28 93 l-28 80 -57 -30z"/>
<path d="M8340 6015 c-30 -40 -55 -56 -135 -84 -39 -13 -77 -20 -108 -17 -45
3 -39 -1 110 -74 l158 -78 15 32 c9 17 22 47 29 66 8 19 25 59 38 88 25 58 27
63 16 60 -5 -1 -18 3 -30 10 -57 32 -67 31 -93 -3z"/>
<path d="M7973 6023 c-18 -7 -16 -43 3 -50 16 -6 34 11 34 33 0 14 -20 23 -37
17z"/>
<path d="M9026 5955 c-55 -19 -66 -38 -90 -148 -13 -58 -23 -81 -39 -91 -51
-30 -248 -146 -323 -189 -44 -26 -90 -47 -102 -47 -19 0 -22 6 -22 43 0 24 -6
51 -13 62 -13 17 -15 17 -61 0 -53 -20 -61 -33 -79 -128 -13 -71 -29 -80 -129
-75 -74 4 -118 27 -128 68 -7 29 -233 147 -238 124 -5 -23 -40 -16 -58 11 -13
20 -16 41 -11 98 2 39 8 81 13 92 7 16 6 17 -7 7 -17 -16 -44 -33 -208 -129
-68 -40 -127 -73 -130 -73 -3 0 -19 -11 -36 -24 l-30 -24 130 -62 c72 -34 189
-90 260 -125 72 -34 171 -82 220 -105 50 -23 129 -62 177 -86 48 -24 95 -44
104 -44 9 0 74 35 145 78 149 90 192 115 237 138 17 9 32 20 32 25 0 5 5 9 12
9 6 0 43 20 82 44 62 38 114 68 231 136 17 10 91 55 165 100 74 46 149 91 165
100 28 15 30 21 35 88 3 39 3 82 -1 94 -5 22 -5 23 -16 3 -11 -20 -12 -19 -66
7 l-55 27 -16 -24 c-22 -33 -68 -75 -83 -75 -9 0 -13 16 -13 49 0 28 -3 52 -8
54 -4 3 -25 -1 -46 -8z m22 -116 c4 -30 -22 -62 -47 -57 -20 4 -25 27 -11 62
14 37 54 33 58 -5z m-650 -381 c1 -28 -3 -40 -18 -48 -26 -14 -40 -5 -40 26 0
32 18 60 40 60 13 0 17 -9 18 -38z"/>
<path d="M8849 5943 c-13 -15 -12 -15 9 -4 23 12 28 21 13 21 -5 0 -15 -7 -22
-17z"/>
<path d="M8128 5933 c7 -3 16 -2 19 1 4 3 -2 6 -13 5 -11 0 -14 -3 -6 -6z"/>
<path d="M8000 5905 c16 -19 274 -145 298 -145 19 0 18 1 -167 96 -127 66
-153 75 -131 49z"/>
<path d="M8615 5820 c-3 -5 1 -10 9 -10 8 0 18 5 21 10 3 6 -1 10 -9 10 -8 0
-18 -4 -21 -10z"/>
<path d="M8648 5793 c7 -3 16 -2 19 1 4 3 -2 6 -13 5 -11 0 -14 -3 -6 -6z"/>
<path d="M7830 5656 c0 -33 3 -36 95 -83 l94 -48 23 22 c12 12 20 24 17 26 -9
8 -217 117 -223 117 -3 0 -6 -15 -6 -34z"/>
<path d="M9352 5615 c0 -16 2 -22 5 -12 2 9 2 23 0 30 -3 6 -5 -1 -5 -18z"/>
<path d="M5587 5588 c-16 -10 -13 -11 82 -56 l84 -40 -39 -25 c-22 -13 -54
-33 -73 -43 -18 -10 -41 -24 -50 -29 -9 -6 -56 -34 -104 -63 l-89 -53 -71 32
c-40 18 -112 52 -160 76 -99 48 -127 53 -127 22 0 -15 5 -19 19 -14 12 3 51
-9 100 -32 62 -29 83 -44 88 -62 17 -68 -54 -120 -159 -117 -79 2 -128 23
-128 53 0 12 5 25 11 29 14 8 69 94 69 107 0 17 -30 -15 -46 -49 -16 -32 -27
-39 -66 -35 -24 3 -22 -18 4 -46 18 -20 19 -23 5 -23 -9 0 -17 -4 -17 -10 0
-5 7 -10 16 -10 19 0 44 -11 227 -100 l138 -67 -43 -31 c-24 -17 -47 -35 -53
-39 -5 -4 -27 -19 -47 -33 -34 -23 -37 -28 -32 -61 6 -33 3 -38 -24 -52 -29
-14 -34 -13 -88 12 -50 23 -55 28 -40 40 25 21 19 36 -21 50 -21 8 -41 19 -45
24 -4 7 -12 6 -23 -3 -14 -11 -17 -10 -22 8 -3 11 -17 25 -32 30 -14 6 -34 13
-43 17 -14 5 -18 2 -18 -13 0 -12 -4 -23 -10 -27 -11 -7 -75 18 -84 34 -10 16
21 68 52 88 30 20 56 43 48 43 -8 0 -67 -34 -196 -113 -63 -38 -124 -75 -135
-81 -11 -6 -40 -24 -63 -40 -24 -15 -65 -39 -90 -53 -76 -41 -262 -157 -262
-163 1 -3 27 -17 58 -32 217 -103 260 -126 244 -132 -9 -3 -29 -14 -43 -23
-15 -10 -48 -31 -75 -48 -27 -16 -51 -32 -54 -35 -3 -3 -28 -16 -57 -29 -29
-13 -54 -30 -57 -37 -3 -8 -15 -14 -26 -14 -14 0 -20 -7 -20 -23 0 -18 10 -28
40 -42 37 -17 40 -21 40 -59 0 -38 3 -42 38 -58 81 -36 212 -97 312 -145 185
-88 180 -86 198 -71 9 7 33 22 52 32 19 11 37 22 40 25 16 19 112 60 127 55
14 -4 15 -4 4 4 -16 12 3 27 21 16 7 -4 8 -3 4 4 -5 8 0 12 13 12 10 0 22 6
24 13 4 8 6 8 6 0 1 -6 10 -9 21 -6 21 6 40 56 40 108 0 23 8 35 35 53 27 17
35 29 35 51 0 24 30 69 30 45 0 -5 4 -4 8 2 4 6 34 27 67 46 33 19 97 58 141
85 45 28 85 52 90 54 25 11 209 125 212 131 2 5 7 8 12 8 4 0 56 29 115 65 59
36 111 65 116 65 5 0 9 5 9 10 0 6 5 10 10 10 6 0 22 11 36 25 14 14 28 24 32
22 7 -4 27 6 154 81 214 125 308 184 308 192 0 6 -112 60 -125 60 -3 0 -11 5
-18 11 -7 5 -50 29 -97 52 -47 23 -84 48 -82 54 1 7 -7 22 -18 33 -22 22 -19
40 6 40 19 0 18 44 -2 61 -12 10 -20 10 -35 1 -38 -24 -83 -12 -252 71 -93 46
-173 79 -180 75z m243 -328 c0 -5 -4 -10 -10 -10 -5 0 -10 5 -10 10 0 6 5 10
10 10 6 0 10 -4 10 -10z m420 -84 c0 -3 -4 -8 -10 -11 -5 -3 -10 -1 -10 4 0 6
5 11 10 11 6 0 10 -2 10 -4z m-30 -29 c0 -2 -15 -16 -32 -33 l-33 -29 29 33
c28 30 36 37 36 29z m-299 -31 c9 -19 7 -29 -6 -50 -24 -36 -49 -30 -53 14 -3
24 2 38 14 47 25 18 33 16 45 -11z m-329 -8 c-9 -9 -15 -9 -24 0 -9 9 -7 12
12 12 19 0 21 -3 12 -12z m-151 -8 c10 -6 19 -16 19 -23 0 -8 -3 -8 -8 -2 -4
6 -18 16 -32 22 -14 6 -19 12 -12 12 7 1 22 -4 33 -9z m699 -33 c0 -2 -15 -16
-32 -33 l-33 -29 29 33 c28 30 36 37 36 29z m-80 -80 c0 -2 -17 -19 -37 -38
l-38 -34 34 38 c33 34 41 42 41 34z m-80 -80 c0 -2 -12 -14 -27 -28 l-28 -24
24 28 c23 25 31 32 31 24z m-1165 -266 c83 -39 167 -79 187 -89 35 -16 52 -42
27 -42 -6 0 -9 -7 -5 -15 3 -8 0 -15 -7 -15 -7 0 -20 -11 -29 -25 -18 -23 -18
-24 16 -35 57 -19 61 -33 13 -59 -45 -25 -45 -25 -154 20 -18 7 -34 11 -37 8
-3 -3 -7 -33 -9 -67 -4 -48 -2 -62 9 -62 8 0 14 -4 14 -10 0 -5 -7 -10 -15
-10 -9 0 -15 -9 -15 -24 0 -14 -5 -28 -11 -31 -6 -4 -8 -14 -5 -22 3 -8 2 -11
-3 -8 -5 3 -12 1 -16 -4 -3 -6 -13 -7 -22 -4 -11 4 -14 3 -9 -5 5 -8 0 -12
-13 -12 -11 0 -23 -5 -26 -10 -3 -6 -33 -23 -66 -40 -33 -16 -58 -26 -55 -22
2 4 -16 16 -40 26 l-44 18 0 146 1 147 97 60 c65 40 106 59 125 58 18 -2 27 3
27 12 0 17 4 18 28 6 144 -73 182 -90 186 -83 3 5 -44 31 -104 58 -61 27 -110
54 -110 61 0 7 -7 13 -15 13 -8 0 -15 -4 -15 -8 0 -4 -19 -18 -42 -30 -24 -13
-52 -28 -63 -35 -104 -64 -149 -87 -166 -87 -19 0 -20 -6 -17 -135 2 -85 -1
-135 -7 -135 -5 0 -20 3 -32 6 -23 6 -23 9 -23 155 l0 149 38 20 c20 12 54 31
75 44 l37 23 -24 13 c-15 7 -36 10 -53 6 -15 -4 -32 -7 -38 -8 -5 -1 -63 25
-128 58 -131 65 -130 61 -31 114 l61 33 93 -46 c99 -50 105 -52 95 -37 -3 5
-28 19 -55 31 -60 26 -69 50 -29 83 l29 25 113 -53 c61 -30 180 -86 262 -125z
m543 128 c1 -32 -2 -39 -14 -35 -9 3 -18 6 -20 6 -3 0 -2 4 1 10 3 6 -1 7 -9
4 -11 -4 -16 0 -16 15 0 16 6 21 28 22 24 0 25 1 7 9 -19 8 -19 9 1 9 19 1 22
-5 22 -40z m-27 -45 c12 -14 11 -16 -5 -13 -11 2 -21 10 -24 17 -5 17 13 15
29 -4z m-316 -413 c3 -5 1 -12 -5 -16 -5 -3 -10 1 -10 9 0 18 6 21 15 7z
m-125 -91 c-8 -5 -19 -10 -25 -10 -5 0 -3 5 5 10 8 5 20 10 25 10 6 0 3 -5 -5
-10z"/>
<path d="M4530 4655 c14 -8 30 -14 35 -14 6 0 -1 6 -15 14 -14 8 -29 14 -35
14 -5 0 1 -6 15 -14z"/>
<path d="M4580 4631 c0 -5 18 -16 40 -25 49 -19 61 -20 35 -3 -33 21 -75 37
-75 28z"/>
<path d="M4715 4343 c-60 -31 -65 -41 -65 -115 0 -61 2 -69 18 -66 11 2 18 14
20 35 2 23 13 38 38 55 21 14 38 36 44 57 15 54 0 63 -55 34z m15 -52 c-13
-26 -40 -35 -40 -14 0 18 30 44 42 37 5 -3 4 -13 -2 -23z"/>
<path d="M9351 5554 c0 -11 3 -14 6 -6 3 7 2 16 -1 19 -3 4 -6 -2 -5 -13z"/>
<path d="M9351 5504 c0 -11 3 -14 6 -6 3 7 2 16 -1 19 -3 4 -6 -2 -5 -13z"/>
<path d="M11285 5464 c3 -19 3 -44 0 -55 -6 -18 -116 -99 -135 -99 -5 0 -21
-11 -37 -24 -15 -13 -43 -31 -60 -40 -18 -9 -33 -21 -33 -26 0 -6 15 -10 33
-10 39 0 101 35 91 52 -5 8 -2 9 10 5 11 -4 62 21 151 74 74 45 135 84 135 88
0 7 -28 20 -109 50 l-53 20 7 -35z"/>
<path d="M5233 5473 c9 -2 25 -2 35 0 9 3 1 5 -18 5 -19 0 -27 -2 -17 -5z"/>
<path d="M5186 5451 c-3 -5 1 -12 10 -15 8 -3 13 -2 9 3 -3 5 1 12 7 14 8 4 7
6 -4 6 -9 1 -19 -3 -22 -8z"/>
<path d="M5317 5429 c-5 -19 -11 -21 -41 -15 -54 10 -44 -9 20 -38 55 -25 114
-34 114 -18 0 5 12 14 26 21 43 19 10 44 -87 65 -21 5 -28 2 -32 -15z"/>
<path d="M10449 5374 c-2 -94 -2 -94 38 -132 l34 -34 40 26 c22 15 50 31 62
37 12 5 39 20 59 32 l37 23 -117 52 c-64 28 -125 54 -134 58 -16 5 -18 -2 -19
-62z"/>
<path d="M10419 5253 c-1 -5 -1 -12 0 -16 1 -5 -3 -6 -8 -3 -5 3 -25 -6 -45
-19 -21 -14 -56 -35 -78 -46 -22 -11 -46 -25 -52 -31 -17 -15 -147 -98 -153
-98 -4 0 -20 -11 -37 -24 -18 -13 -40 -26 -51 -29 -11 -2 16 -5 61 -6 73 -1
84 2 127 29 26 17 69 41 95 55 26 14 63 35 82 47 19 12 44 26 55 33 11 6 37
22 58 34 l38 24 -27 28 c-26 27 -62 39 -65 22z"/>
<path d="M4876 5183 c-6 -14 -5 -15 5 -6 7 7 10 15 7 18 -3 3 -9 -2 -12 -12z"/>
<path d="M8806 5139 c-79 -45 -82 -47 -73 -55 3 -4 37 12 75 35 37 22 74 41
81 41 16 0 145 -62 149 -72 2 -5 8 -8 13 -8 15 0 144 -63 147 -72 2 -4 10 -8
18 -8 9 0 13 4 10 8 -7 12 -333 173 -345 171 -3 -1 -37 -19 -75 -40z"/>
<path d="M4790 5130 c0 -5 5 -10 10 -10 6 0 10 5 10 10 0 6 -4 10 -10 10 -5 0
-10 -4 -10 -10z"/>
<path d="M6421 4990 c-62 -38 -115 -70 -117 -70 -2 0 -129 -75 -282 -167 -152
-91 -297 -177 -322 -191 -25 -13 -52 -30 -60 -37 -8 -7 -25 -16 -37 -19 -12
-4 -32 -19 -43 -33 -11 -14 -20 -22 -20 -17 -1 5 -9 0 -18 -11 -10 -11 -34
-33 -53 -50 l-34 -30 29 33 c39 42 27 40 -50 -8 -35 -22 -68 -40 -74 -40 -5 0
-10 -4 -10 -9 0 -5 -8 -11 -17 -15 -10 -3 -40 -19 -68 -36 -27 -17 -60 -35
-73 -40 -13 -6 -37 -23 -55 -40 -18 -16 -35 -30 -39 -30 -18 0 -6 -21 20 -34
28 -15 57 -7 74 18 5 7 13 5 24 -6 14 -14 15 -20 4 -33 -7 -8 -11 -17 -9 -19
2 -3 74 -38 159 -79 85 -41 207 -100 269 -131 63 -31 121 -56 128 -56 7 0 13
-4 13 -10 0 -5 5 -10 11 -10 6 0 50 -18 97 -41 52 -25 88 -37 90 -30 2 6 8 11
13 11 5 0 51 25 102 56 50 30 99 59 107 64 8 5 96 57 195 117 99 59 184 110
190 112 5 2 23 13 40 25 16 12 39 26 50 32 52 28 410 242 643 385 l53 32 -81
82 c-89 89 -51 68 -509 294 -112 56 -209 101 -215 101 -6 0 -62 -31 -125 -70z
m113 -76 c20 -63 14 -91 -20 -104 -23 -9 -74 2 -74 16 0 3 10 39 21 79 26 89
47 92 73 9z m495 -216 c5 -13 13 -43 19 -68 10 -41 9 -47 -9 -62 -48 -40 -98
-12 -81 44 6 18 13 50 17 71 4 28 11 37 26 37 11 0 23 -10 28 -22z m-710 -216
c41 -20 81 -47 89 -59 13 -21 12 -25 -20 -57 -63 -63 -189 -82 -271 -41 -42
21 -64 19 -115 -11 -34 -20 -52 -24 -78 -20 -65 13 -56 34 36 84 30 16 78 43
105 59 110 67 141 82 160 82 11 0 53 -17 94 -37z m-613 -275 c280 -133 364
-175 364 -185 0 -5 -11 -18 -24 -29 -13 -11 -26 -27 -28 -34 -3 -9 -28 -1 -88
29 -46 23 -86 42 -89 42 -13 0 24 -26 57 -40 63 -26 182 -90 182 -98 0 -15
-110 -72 -138 -72 -8 0 -63 23 -121 51 -57 28 -155 75 -215 104 -271 128 -392
188 -404 197 -9 8 3 20 50 49 69 42 90 46 128 24 34 -19 35 -19 37 12 1 28 26
53 53 53 9 0 115 -47 236 -103z"/>
<path d="M6187 4422 c-15 -9 -26 -21 -24 -27 10 -30 127 -30 127 0 0 13 -48
45 -67 45 -4 0 -20 -8 -36 -18z"/>
<path d="M5430 4226 c0 -9 201 -108 207 -102 5 4 -69 42 -199 104 -5 2 -8 1
-8 -2z"/>
<path d="M5695 4091 c17 -10 41 -22 55 -25 14 -4 3 4 -23 18 -56 30 -75 34
-32 7z"/>
<path d="M5780 4051 c0 -8 41 -23 47 -17 2 1 -8 8 -22 14 -14 6 -25 8 -25 3z"/>
<path d="M8560 5009 c-8 -5 -76 -46 -150 -90 -74 -45 -188 -114 -253 -153 -65
-39 -125 -76 -135 -81 -9 -6 -36 -23 -59 -38 -24 -15 -45 -27 -47 -27 -3 0
-48 -27 -101 -60 -53 -33 -98 -60 -100 -60 -2 0 -48 -27 -102 -60 -54 -34
-105 -65 -113 -70 -121 -74 -489 -296 -548 -330 -43 -25 -97 -58 -121 -73 -23
-15 -56 -36 -74 -46 -18 -10 -72 -42 -120 -72 -48 -30 -96 -58 -105 -64 -10
-5 -40 -24 -67 -41 -28 -17 -88 -53 -135 -80 -47 -26 -87 -51 -90 -55 -3 -3
-27 -18 -55 -33 -27 -15 -70 -40 -95 -56 -71 -45 -132 -80 -141 -80 -5 0 -9
-4 -9 -10 0 -5 -4 -10 -10 -10 -5 0 -43 -20 -84 -45 -54 -33 -73 -50 -69 -61
3 -8 12 -13 19 -10 7 3 19 0 26 -7 15 -15 128 -71 143 -72 6 0 12 -3 15 -6 9
-12 65 -37 95 -43 17 -4 46 -20 65 -36 37 -31 50 -37 50 -20 0 6 -8 10 -17 10
-17 1 -17 2 0 14 20 15 20 14 -33 55 l-25 19 27 11 c15 6 69 18 120 27 51 9
124 22 161 29 37 7 70 9 72 5 8 -13 -94 -210 -109 -210 -8 0 -33 9 -57 19 -31
14 -47 17 -56 9 -7 -6 -25 -7 -40 -4 l-28 6 25 -15 c14 -8 33 -14 42 -15 9 0
22 -8 27 -17 6 -11 11 -13 11 -5 0 7 5 10 10 7 6 -4 7 -11 4 -17 -4 -6 1 -8
12 -4 19 5 47 -5 45 -18 -3 -20 0 -26 9 -21 6 4 10 -5 10 -20 0 -14 -6 -28
-13 -31 -8 -3 -60 18 -117 45 -63 31 -107 48 -114 42 -6 -4 -37 -22 -68 -40
-57 -31 -57 -31 -93 -14 -20 10 -34 23 -33 31 2 8 30 28 62 45 35 18 53 33 45
35 -23 8 -180 81 -242 113 -32 16 -63 26 -69 23 -7 -5 -8 -2 -3 6 6 10 4 12
-11 6 -10 -4 -15 -4 -11 0 4 5 -3 13 -15 20 -19 10 -29 8 -68 -14 -25 -14 -64
-36 -87 -48 -24 -13 -66 -39 -95 -59 -29 -19 -58 -35 -65 -35 -7 0 -13 -4 -13
-10 0 -5 -7 -10 -15 -10 -8 0 -15 -4 -15 -9 0 -5 -10 -11 -22 -15 -13 -3 -36
-17 -52 -31 -16 -14 -34 -25 -41 -25 -7 0 -20 -9 -29 -19 -10 -11 -31 -23 -47
-26 -16 -4 -29 -11 -29 -16 0 -5 -10 -9 -22 -10 -13 0 -17 -3 -10 -6 7 -3 31
2 53 11 66 27 118 21 205 -23 43 -21 85 -36 93 -33 11 4 10 8 -7 15 -12 6 -22
19 -22 30 0 17 5 14 31 -16 17 -20 35 -34 39 -32 5 3 11 1 14 -4 4 -5 1 -13
-5 -17 -8 -5 -9 -3 -4 7 5 8 5 11 0 7 -4 -4 -14 -3 -21 3 -8 7 -14 6 -20 -2
-4 -7 -3 -9 3 -6 6 4 16 0 23 -8 7 -8 16 -13 20 -10 4 3 18 -3 31 -13 13 -10
46 -29 73 -42 56 -29 65 -44 41 -70 -10 -11 -15 -20 -12 -20 4 0 2 -12 -3 -26
-10 -25 -9 -26 14 -20 21 5 25 2 28 -21 5 -43 -15 -91 -55 -130 -47 -47 -67
-40 -67 24 0 74 -9 81 -65 52 -54 -28 -62 -43 -71 -136 -5 -53 -12 -73 -30
-90 -13 -13 -26 -23 -29 -23 -3 0 -67 -42 -141 -92 -222 -153 -224 -154 -224
-83 0 38 -4 47 -24 56 -19 9 -32 6 -74 -15 -59 -30 -76 -60 -87 -151 -9 -69
-28 -85 -106 -85 -83 0 -164 29 -175 62 -9 29 -251 147 -290 141 -25 -4 -34 0
-48 22 -18 28 -44 141 -34 151 3 3 21 -1 40 -9 34 -14 34 -14 36 14 1 16 -2
29 -8 29 -6 0 -22 11 -35 24 l-24 24 -6 -39 c-6 -35 -13 -43 -72 -77 -36 -20
-75 -44 -88 -52 -12 -8 -44 -28 -71 -45 -27 -16 -52 -33 -55 -37 -3 -5 -42
-26 -87 -48 -46 -23 -82 -47 -82 -55 0 -8 -6 -12 -15 -9 -8 3 -19 3 -25 -1
-13 -8 56 -45 84 -45 11 0 16 -3 13 -7 -7 -6 10 -15 188 -98 55 -25 113 -53
128 -61 15 -9 35 -13 43 -10 8 3 13 2 10 -3 -8 -12 20 -22 41 -15 14 4 15 3 5
-4 -11 -7 -10 -10 3 -16 9 -3 22 -3 27 1 6 3 8 2 5 -4 -3 -5 31 -27 76 -48 45
-21 118 -55 161 -76 78 -37 80 -38 105 -20 14 10 34 21 44 24 9 4 17 11 17 17
0 5 7 10 15 10 9 0 34 12 58 27 54 36 67 43 119 72 24 13 45 26 48 30 6 7 42
28 85 50 17 8 59 33 95 56 92 59 113 72 167 102 26 14 54 32 61 40 7 7 24 16
38 19 13 3 24 9 24 13 0 3 14 13 32 20 18 8 55 32 83 53 27 21 54 38 59 38 5
0 17 6 25 14 9 8 43 28 76 46 33 18 83 47 110 65 28 18 69 43 92 55 23 13 40
26 38 30 -3 4 7 6 20 4 22 -2 23 0 15 17 -6 10 -8 19 -6 19 3 0 -13 20 -37 44
-23 24 -46 44 -50 43 -5 -1 -13 6 -18 16 -6 9 -14 15 -20 12 -5 -3 -6 0 -4 8
3 7 -3 22 -15 32 -19 17 -26 12 -21 -18 1 -5 -3 -6 -8 -2 -6 3 -8 12 -5 20 3
8 -7 26 -23 41 -15 15 -22 24 -14 19 10 -5 12 -4 7 3 -13 22 4 12 34 -19 16
-18 30 -28 30 -24 0 4 7 2 15 -5 9 -7 14 -15 11 -17 -6 -7 45 -58 57 -58 7 0
12 -5 12 -11 0 -6 16 -27 35 -48 19 -21 34 -42 32 -47 -1 -6 3 -7 10 -3 114
71 313 193 348 213 25 14 115 68 200 120 85 52 175 106 198 120 24 14 56 33
70 42 15 9 92 56 172 103 80 48 157 96 173 107 15 11 31 18 36 15 4 -3 9 -56
10 -117 3 -125 1 -123 81 -160 29 -13 57 -19 80 -16 21 3 103 46 203 107 163
98 169 101 192 86 37 -24 45 -20 45 26 0 23 3 39 6 35 4 -3 12 0 19 7 7 7 72
47 144 90 72 43 131 82 131 86 0 5 10 12 23 16 47 14 287 162 287 177 0 4 6 7
14 7 8 0 18 4 21 10 4 6 -1 7 -12 4 -15 -5 -16 -4 -3 5 8 6 32 16 52 21 20 6
44 17 52 25 8 8 18 15 22 15 4 0 16 8 26 17 10 9 27 17 37 18 11 1 25 6 33 12
7 5 41 26 75 46 61 35 64 36 98 21 l35 -14 0 39 c0 33 4 40 29 51 38 15 47 48
18 60 -12 5 -18 9 -13 9 5 1 3 8 -4 16 -7 8 -9 15 -4 15 15 -1 44 -27 38 -33
-4 -3 5 -9 19 -12 21 -6 47 6 124 51 131 77 168 107 201 162 27 46 27 50 27
220 l0 174 40 27 c51 34 135 84 158 93 28 12 20 29 -23 45 -23 9 -37 20 -33
27 3 6 -12 -7 -35 -28 -23 -21 -40 -44 -39 -50 1 -6 -3 -10 -10 -9 -6 2 -22
-10 -35 -25 -13 -15 -30 -32 -38 -37 -21 -12 36 51 90 102 25 23 43 44 40 46
-9 10 -729 367 -737 366 -4 0 -15 -4 -23 -10z m367 -571 c-3 -8 -6 -5 -6 6 -1
11 2 17 5 13 3 -3 4 -12 1 -19z m-90 -54 c-3 -3 -12 -4 -19 -1 -8 3 -5 6 6 6
11 1 17 -2 13 -5z m-60 -40 c-3 -3 -12 -4 -19 -1 -8 3 -5 6 6 6 11 1 17 -2 13
-5z m251 -136 c1 -55 -2 -107 -8 -117 -13 -24 -182 -130 -213 -134 -21 -2 -22
1 -25 101 -2 79 1 108 13 124 21 31 186 129 210 126 18 -3 20 -12 23 -100z
m-494 -3 c-4 -8 -8 -15 -10 -15 -2 0 -4 7 -4 15 0 8 4 15 10 15 5 0 7 -7 4
-15z m-54 -35 c0 -5 -4 -10 -10 -10 -5 0 -10 5 -10 10 0 6 5 10 10 10 6 0 10
-4 10 -10z m-100 -42 l33 -11 -22 -19 c-13 -10 -36 -18 -53 -18 -17 0 -38 -9
-52 -22 -12 -13 -45 -41 -72 -63 -27 -22 -51 -43 -52 -47 -2 -5 -8 -6 -13 -2
-5 3 -9 0 -9 -6 0 -6 -4 -8 -10 -5 -5 3 -10 -1 -10 -9 0 -9 -7 -16 -16 -16 -8
0 -12 -5 -8 -11 4 -8 0 -8 -15 0 -22 12 -27 27 -12 33 16 5 171 158 171 169 0
5 7 9 15 9 8 0 15 4 15 9 0 9 24 16 61 20 9 0 31 -4 49 -11z m210 -43 c0 -2
-6 -5 -13 -8 -8 -3 -14 1 -14 8 0 7 6 11 14 8 7 -3 13 -6 13 -8z m26 6 c-3 -5
12 -11 34 -15 44 -7 47 -12 24 -44 -11 -17 -20 -20 -32 -13 -36 20 -102 -43
-102 -98 0 -31 11 -51 28 -51 23 0 82 49 82 68 0 12 -3 13 -12 4 -16 -16 -38
-15 -38 1 0 13 73 67 91 67 5 0 9 -17 9 -37 -1 -43 -33 -85 -98 -128 -80 -53
-128 -12 -102 86 8 31 26 58 61 91 31 31 46 53 43 63 -4 8 -1 15 6 15 6 0 9
-4 6 -9z m-112 -21 c-13 -13 -82 -16 -93 -5 -7 7 11 11 46 12 36 2 53 -1 47
-7z m263 -127 c-2 -2 -16 3 -30 10 -15 8 -24 17 -21 20 4 3 17 -1 30 -10 14
-9 23 -17 21 -20z m-301 -90 c-1 -59 2 -113 7 -120 4 -6 3 -14 -4 -19 -7 -4
-9 -3 -6 3 4 6 0 14 -9 17 -9 3 -12 2 -9 -5 4 -6 -3 -7 -19 -3 -16 4 -26 2
-26 -5 0 -6 3 -10 8 -10 23 4 32 -4 32 -27 0 -21 -4 -24 -20 -19 -12 4 -20 2
-20 -5 0 -20 -24 -4 -31 21 l-7 24 -7 -23 c-6 -17 -10 -20 -16 -11 -5 9 -16 4
-38 -19 -17 -16 -33 -27 -36 -22 -3 5 -2 11 3 14 5 3 8 42 8 88 -2 140 37 192
95 127 16 -18 29 -28 29 -23 0 5 5 2 10 -6 7 -11 10 4 10 49 0 49 4 67 17 77
10 7 21 11 24 8 3 -2 5 -52 5 -111z m-506 7 c0 -5 -4 -10 -10 -10 -5 0 -10 5
-10 10 0 6 5 10 10 10 6 0 10 -4 10 -10z m115 0 c-3 -5 -12 -10 -18 -10 -7 0
-6 4 3 10 19 12 23 12 15 0z m-29 -25 c0 0 -12 -9 -26 -20 l-25 -20 20 24 c19
23 19 24 1 17 -16 -5 -17 -4 -7 8 10 12 16 13 26 3 7 -7 12 -12 11 -12z m207
-93 c-4 -23 -1 -37 8 -44 11 -7 11 -11 2 -15 -7 -2 -13 -14 -13 -26 0 -11 -10
-32 -22 -45 -18 -20 -19 -24 -5 -19 11 4 17 1 17 -9 0 -9 6 -14 13 -11 6 2 11
10 9 16 -1 7 3 9 9 5 7 -4 9 -20 6 -40 -4 -20 -1 -35 6 -38 7 -2 5 -5 -4 -5
-9 -1 -23 7 -30 16 -9 11 -10 14 -2 9 9 -5 11 -2 7 8 -3 9 -10 13 -15 10 -5
-3 -9 -2 -8 3 3 20 -2 27 -11 13 -8 -13 -10 -12 -10 3 0 20 -18 22 -54 6 -20
-10 -30 -8 -59 9 -42 27 -57 15 -57 -43 0 -35 -4 -44 -25 -53 l-25 -12 0 105
c0 93 2 105 19 115 29 15 31 13 31 -32 l0 -43 45 76 c39 67 69 98 82 85 2 -2
-12 -29 -31 -59 -20 -31 -36 -60 -36 -66 0 -12 82 -61 92 -55 4 3 8 44 8 92 0
48 1 94 1 103 0 9 10 21 22 26 19 9 23 7 29 -20 3 -17 4 -46 1 -65z m-286 26
c-3 -8 -6 -5 -6 6 -1 11 2 17 5 13 3 -3 4 -12 1 -19z m-36 -67 c6 10 8 6 7
-13 -2 -26 -18 -41 -18 -17 0 5 -3 8 -8 5 -4 -2 -5 14 -2 37 l5 42 3 -34 c3
-26 6 -31 13 -20z m21 -61 c10 0 6 -59 -8 -114 -5 -22 -4 -27 5 -21 7 4 10 14
7 22 -3 8 -2 12 3 9 6 -4 7 -67 0 -86 -1 -3 -1 -8 -1 -11 2 -14 -40 -1 -63 21
-22 21 -26 22 -47 8 -17 -11 -23 -25 -23 -53 0 -28 -6 -41 -22 -52 l-23 -15 0
105 0 106 63 37 c34 21 64 42 66 47 2 4 10 6 18 3 8 -3 19 -6 25 -6z m503 -10
c4 -6 -6 -10 -22 -9 -25 0 -26 1 -8 9 11 5 21 9 22 9 1 1 5 -3 8 -9z m-30 -30
c3 -5 2 -10 -4 -10 -5 0 -13 5 -16 10 -3 6 -2 10 4 10 5 0 13 -4 16 -10z
m-448 -37 c-3 -10 -5 -4 -5 12 0 17 2 24 5 18 2 -7 2 -21 0 -30z m-257 -149
c33 -74 33 -77 14 -91 -16 -12 -20 -12 -31 3 -21 28 -71 0 -94 -53 -10 -23
-20 -43 -23 -43 -2 0 -11 -3 -19 -6 -11 -4 -6 23 20 113 26 88 42 124 61 140
14 12 29 20 32 18 3 -2 21 -38 40 -81z m260 2 c0 -3 -4 -8 -10 -11 -5 -3 -10
-1 -10 4 0 6 5 11 10 11 6 0 10 -2 10 -4z m-436 -22 c9 -3 16 -16 16 -29 0
-46 -21 -81 -70 -114 -44 -30 -50 -38 -50 -69 0 -32 -20 -61 -42 -62 -5 0 -8
46 -8 103 0 114 -6 103 89 153 50 27 45 26 65 18z m461 -34 c3 -5 1 -10 -4
-10 -6 0 -11 5 -11 10 0 6 2 10 4 10 3 0 8 -4 11 -10z m-2495 -872 c0 -19 2
-20 10 -8 7 12 10 8 10 -15 0 -35 -8 -49 -32 -58 -12 -4 -19 2 -26 22 -10 29
2 66 19 56 5 -3 6 1 3 9 -3 9 -1 16 5 16 6 0 11 -10 11 -22z m-582 -397 c-1
-16 -6 -27 -10 -25 -4 3 -8 3 -8 0 0 -2 -3 -13 -6 -23 -5 -15 -4 -15 5 -3 9
13 11 12 11 -4 0 -12 -5 -16 -16 -12 -9 3 -20 6 -25 6 -6 0 -7 9 -4 21 5 15 4
19 -4 15 -15 -10 -13 5 4 28 8 11 20 16 30 12 9 -3 13 -2 10 4 -3 6 -1 10 5
10 5 0 9 -13 8 -29z"/>
<path d="M8907 4235 c-109 -69 -107 -66 -107 -161 0 -46 4 -86 10 -89 11 -7
131 65 173 104 25 23 27 30 27 108 0 100 -4 102 -103 38z m53 -50 c0 -24 -42
-75 -61 -75 -5 0 -9 -11 -9 -24 0 -24 -25 -54 -33 -39 -9 17 -1 127 9 130 6 2
20 10 30 18 10 8 29 15 42 15 17 0 22 -6 22 -25z"/>
<path d="M8903 4173 c-7 -2 -13 -13 -13 -24 0 -17 3 -18 20 -9 11 6 20 17 20
25 0 15 -6 17 -27 8z"/>
<path d="M8330 3756 c0 -31 5 -56 10 -56 6 0 10 9 10 20 0 18 3 19 20 10 26
-14 28 11 3 31 -15 12 -16 12 -8 -1 8 -13 7 -13 -9 -1 -11 9 -13 17 -6 21 7 5
6 11 -5 20 -13 11 -15 6 -15 -44z"/>
<path d="M8382 3685 c0 -16 2 -22 5 -12 2 9 2 23 0 30 -3 6 -5 -1 -5 -18z"/>
<path d="M7863 3570 c-23 -14 -33 -27 -33 -45 0 -14 3 -25 7 -25 17 0 73 53
73 71 0 24 -7 24 -47 -1z"/>
<path d="M7641 3395 c-13 -47 -10 -51 17 -28 19 16 20 21 8 43 l-14 24 -11
-39z"/>
<path d="M7468 3334 c-21 -11 -28 -22 -28 -44 0 -36 2 -36 40 -8 18 13 30 31
30 45 0 27 -5 28 -42 7z"/>
<path d="M9360 4935 c69 -36 136 -68 150 -71 30 -6 25 -4 -187 104 -35 18 -69
32 -75 32 -7 -1 43 -30 112 -65z"/>
<path d="M9559 4839 c13 -10 31 -19 40 -19 9 0 22 -5 29 -12 6 -6 14 -9 17 -6
7 7 -52 42 -85 51 l-25 6 24 -20z"/>
<path d="M7293 4653 c65 -66 68 -67 91 -53 14 8 26 20 28 25 3 9 -156 95 -177
95 -5 0 20 -30 58 -67z"/>
<path d="M3259 3983 c-1 -5 -1 -24 -1 -44 1 -33 -3 -38 -69 -80 -39 -24 -86
-54 -105 -66 -19 -13 -39 -23 -44 -23 -6 0 -10 -4 -10 -10 0 -5 -8 -10 -17
-11 -15 0 -15 -2 2 -8 24 -9 57 -2 49 10 -3 5 0 9 5 9 6 0 11 -4 11 -10 0 -8
46 16 173 91 27 16 53 29 58 29 5 0 9 4 9 8 0 5 18 17 40 27 22 10 39 23 37
28 -3 9 -111 57 -129 57 -4 0 -9 -3 -9 -7z"/>
<path d="M4954 3846 c-6 -17 2 -36 17 -36 12 0 12 37 -1 45 -6 3 -13 -1 -16
-9z"/>
<path d="M4877 3798 c-2 -7 1 -24 8 -38 28 -57 27 -83 -6 -123 -17 -20 -35
-34 -41 -31 -6 4 -8 2 -4 -4 3 -6 -3 -13 -14 -17 -11 -3 -20 -11 -20 -16 0
-12 -53 0 -62 15 -4 6 -5 19 -2 30 4 13 2 16 -6 11 -6 -4 -10 -16 -7 -26 4
-14 0 -19 -13 -19 -22 0 -39 -22 -22 -28 8 -2 7 -8 -4 -19 -8 -8 -18 -12 -22
-9 -3 4 0 12 8 17 12 8 11 9 -5 7 -12 -2 -19 -11 -19 -21 1 -9 -2 -17 -7 -17
-5 0 -9 10 -10 23 0 17 -4 13 -16 -16 -14 -34 -14 -40 -1 -54 13 -12 19 -13
39 -1 13 7 27 18 31 23 4 6 8 6 8 2 0 -5 12 0 28 11 15 10 32 17 38 15 6 -2
17 3 24 12 7 8 16 15 21 15 5 0 40 20 79 45 39 25 74 45 79 45 28 0 20 94 -10
126 -20 21 -21 27 -9 35 11 8 8 8 -10 3 -14 -4 -27 -11 -28 -15 -2 -5 -8 -7
-12 -4 -5 3 -7 12 -3 20 3 8 3 15 0 15 -3 0 -7 -6 -10 -12z"/>
<path d="M4524 3773 c-8 -8 -14 -22 -14 -31 0 -14 -2 -15 -9 -3 -8 12 -12 13
-26 1 -13 -11 -13 -15 -3 -22 9 -6 6 -7 -8 -3 -13 3 -26 -1 -34 -10 -7 -8 -17
-15 -22 -15 -5 0 -16 -6 -24 -14 -7 -8 -19 -17 -26 -19 -10 -4 -9 -8 2 -17 12
-8 9 -9 -11 -4 -29 6 -50 -13 -29 -26 7 -4 8 -10 3 -13 -5 -3 -15 -2 -23 4
-20 12 -40 11 -40 -1 0 -6 26 -22 58 -36 64 -29 73 -33 122 -59 101 -52 105
-54 96 -30 -3 9 6 41 20 72 40 92 12 111 -62 43 -49 -45 -55 -47 -70 -22 -10
15 -7 23 15 47 42 48 82 75 109 75 32 0 54 28 40 53 -6 12 -6 23 2 32 9 11 5
14 -20 13 -17 -1 -38 -7 -46 -15z m29 -10 c-4 -11 -3 -14 5 -9 8 5 10 2 6 -9
-7 -17 -53 -40 -62 -30 -3 3 0 5 6 5 7 0 12 8 12 18 0 18 18 42 32 42 4 0 4
-7 1 -17z m-156 -199 c-7 -8 -57 15 -57 26 0 6 13 4 31 -5 17 -9 29 -19 26
-21z"/>
<path d="M4530 3744 c0 -8 5 -12 10 -9 6 4 8 11 5 16 -9 14 -15 11 -15 -7z"/>
<path d="M5248 3726 c-10 -7 -15 -16 -12 -19 3 -3 -4 -3 -15 0 -18 4 -21 1
-18 -18 2 -19 24 -34 108 -76 57 -29 108 -53 112 -53 5 0 37 17 72 38 58 33
65 40 65 69 0 27 -5 34 -25 39 -14 3 -25 10 -25 15 0 15 -19 10 -59 -16 l-38
-26 -61 31 c-68 33 -79 35 -104 16z m195 -93 c-7 -2 -19 -2 -25 0 -7 3 -2 5
12 5 14 0 19 -2 13 -5z"/>
<path d="M4755 3689 c-35 -31 -44 -49 -25 -49 6 0 10 5 10 10 0 6 15 24 33 40
43 39 27 39 -18 -1z"/>
<path d="M4870 3690 c0 -5 5 -10 10 -10 6 0 10 5 10 10 0 6 -4 10 -10 10 -5 0
-10 -4 -10 -10z"/>
<path d="M4820 3675 c-7 -8 -16 -12 -21 -9 -5 3 -9 -2 -9 -11 0 -9 -4 -14 -8
-11 -5 3 -9 0 -10 -7 0 -7 -4 -23 -8 -37 -7 -22 -6 -24 9 -12 9 8 20 11 25 8
6 -3 9 2 8 12 0 9 9 21 20 26 13 6 22 19 22 33 0 27 -10 29 -28 8z"/>
<path d="M4080 3464 c0 -57 -3 -67 -20 -71 -11 -3 -20 -9 -20 -14 0 -5 -9 -9
-20 -9 -61 0 19 -81 82 -84 16 0 28 -7 28 -13 0 -7 7 -13 15 -13 8 0 15 -4 15
-8 0 -11 63 -2 71 10 8 12 49 1 49 -13 0 -5 -5 -9 -12 -9 -6 0 -2 -8 9 -17 11
-10 22 -26 26 -35 5 -13 17 -18 47 -18 30 0 40 -4 40 -16 0 -10 37 -33 106
-65 l105 -49 45 25 c24 14 56 33 70 42 14 9 38 24 53 32 15 9 51 31 81 49 30
18 87 52 125 76 48 28 71 49 73 64 3 22 -5 26 -53 23 l-20 -1 20 9 c18 8 19 9
3 16 -14 6 -18 19 -18 64 0 32 -3 60 -6 64 -7 7 -54 -13 -54 -23 0 -4 -8 -10
-17 -14 -18 -5 -46 -22 -108 -60 -16 -11 -48 -30 -70 -44 -22 -14 -51 -33 -65
-42 -48 -32 -66 -33 -138 -1 -75 33 -396 185 -424 201 -16 9 -18 4 -18 -56z
m87 -151 c-9 -9 -19 -14 -23 -11 -10 10 6 28 24 28 15 0 15 -1 -1 -17z m274
-70 c13 -16 12 -17 -3 -4 -10 7 -18 15 -18 17 0 8 8 3 21 -13z m-1 -53 c0 -5
-9 -14 -20 -20 -15 -8 -20 -8 -20 3 0 8 3 17 7 20 10 10 33 8 33 -3z m300 -4
c0 -2 -7 -7 -16 -10 -8 -3 -12 -2 -9 4 6 10 25 14 25 6z m-275 -16 c3 -5 1
-10 -4 -10 -6 0 -11 5 -11 10 0 6 2 10 4 10 3 0 8 -4 11 -10z"/>
<path d="M5356 3515 c-9 -9 -17 -19 -17 -23 -7 -34 -4 -54 7 -63 15 -13 17 -9
14 38 -1 21 4 32 14 35 10 2 13 8 7 16 -6 11 -11 10 -25 -3z"/>
<path d="M5480 3456 c0 -3 9 -10 20 -16 11 -6 20 -8 20 -6 0 3 -9 10 -20 16
-11 6 -20 8 -20 6z"/>
<path d="M5206 3415 c3 -19 -4 -34 -31 -61 -20 -19 -33 -40 -29 -45 3 -5 65
-39 139 -75 l133 -66 47 28 c25 16 72 43 103 61 31 17 58 36 60 42 4 12 -35
34 -48 26 -5 -3 -21 6 -36 20 -37 35 -67 40 -102 19 -30 -17 -31 -17 -113 23
-119 58 -129 60 -123 28z m11 -81 c-3 -3 -12 -4 -19 -1 -8 3 -5 6 6 6 11 1 17
-2 13 -5z m283 -58 c0 -2 -7 -7 -16 -10 -8 -3 -12 -2 -9 4 6 10 25 14 25 6z"/>
<path d="M5541 3427 c2 -2 18 -11 34 -21 l30 -17 -24 20 c-13 12 -28 21 -34
21 -6 0 -8 -1 -6 -3z"/>
<path d="M5640 3373 c8 -3 24 -10 35 -15 20 -9 20 -9 1 6 -11 9 -27 16 -35 15
-14 0 -14 -1 -1 -6z"/>
<path d="M5730 3335 c14 -7 27 -11 30 -9 6 7 -22 24 -40 23 -9 0 -5 -6 10 -14z"/>
<path d="M3280 3076 l0 -93 -52 -35 c-29 -19 -83 -51 -120 -72 -38 -21 -68
-42 -68 -47 0 -5 -5 -9 -11 -9 -16 0 -259 -151 -259 -161 0 -4 -8 -10 -17 -12
-10 -3 21 -5 69 -6 84 -1 90 0 142 34 30 19 58 35 62 35 4 0 15 7 25 16 9 8
41 28 71 44 63 35 112 63 153 90 17 11 46 28 65 38 91 49 247 149 239 155 -2
2 -40 18 -84 37 -44 18 -104 44 -133 57 -83 36 -82 37 -82 -71z"/>
<path d="M5188 2710 c-25 -16 -49 -33 -52 -38 -7 -11 53 -152 65 -152 4 0 43
22 85 50 51 32 85 48 99 45 30 -8 47 8 40 37 -5 19 -19 29 -58 43 -29 10 -61
23 -72 28 -36 19 -61 16 -107 -13z m222 -81 c0 -5 -7 -9 -15 -9 -9 0 -15 9
-15 21 0 18 2 19 15 9 8 -7 15 -16 15 -21z"/>
<path d="M4508 2693 c20 -8 14 -25 -7 -18 -14 4 -21 0 -26 -15 -3 -11 -12 -20
-18 -20 -7 0 -3 -7 7 -15 11 -8 16 -18 11 -22 -4 -5 -10 -2 -12 5 -3 6 -9 12
-15 12 -6 0 -7 -7 -4 -16 3 -8 2 -13 -2 -10 -5 3 -15 -3 -23 -12 -32 -37 -32
-75 -1 -49 13 10 15 9 9 -5 -6 -18 24 -35 42 -23 5 3 13 0 17 -6 5 -8 3 -9 -6
-4 -8 5 -11 4 -7 -2 10 -16 318 -165 331 -160 11 4 56 158 56 191 0 10 -22 27
-55 42 -47 23 -57 24 -72 13 -14 -12 -16 -12 -11 1 4 11 0 16 -13 17 -10 1
-28 11 -40 22 -12 11 -34 24 -50 30 -23 8 -31 7 -40 -7 -9 -15 -10 -14 -6 5 4
17 -2 25 -28 37 -18 9 -37 16 -42 15 -4 0 -2 -3 5 -6z m128 -94 c-2 -35 -36
-64 -36 -30 0 10 6 22 13 25 6 3 2 3 -10 0 -18 -4 -23 -1 -23 13 0 13 3 14 8
6 6 -10 12 -10 28 2 10 8 20 15 20 15 1 0 1 -14 0 -31z m28 -34 c-12 -18 -12
-24 -2 -28 8 -4 5 -8 -9 -12 -13 -4 -20 -11 -17 -16 3 -5 -2 -6 -10 -3 -20 8
-21 34 -1 34 8 0 15 6 15 14 0 8 7 17 16 20 14 5 14 9 3 24 -13 15 -12 16 3 4
16 -13 16 -16 2 -37z m-219 -5 c3 -5 -1 -10 -10 -10 -9 0 -13 5 -10 10 3 6 8
10 10 10 2 0 7 -4 10 -10z m115 -49 c0 -5 -10 -13 -21 -16 -17 -6 -19 -9 -8
-16 8 -5 9 -9 3 -9 -23 0 -24 15 -2 32 27 21 28 21 28 9z m49 -10 c20 -13 -18
-31 -44 -20 -18 7 -18 8 5 8 20 1 22 3 10 11 -13 9 -13 10 0 10 8 0 21 -4 29
-9z"/>
<path d="M5020 2609 c-36 -21 -69 -40 -74 -42 -8 -3 26 -163 37 -174 8 -7 177
99 177 111 0 22 -55 146 -65 145 -5 0 -39 -18 -75 -40z"/>
<path d="M4897 2533 c-6 -9 -47 -207 -47 -224 0 -5 15 2 34 14 18 12 41 27 50
32 14 9 14 17 -3 93 -20 86 -25 100 -34 85z"/>
<path d="M5235 2490 c-3 -6 1 -7 9 -4 18 7 21 14 7 14 -6 0 -13 -4 -16 -10z"/>
<path d="M5245 2460 c-3 -6 1 -7 9 -4 18 7 21 14 7 14 -6 0 -13 -4 -16 -10z"/>
<path d="M5036 2363 c-6 -14 -5 -15 5 -6 7 7 10 15 7 18 -3 3 -9 -2 -12 -12z"/>
<path d="M2333 2353 c-17 -6 -16 -21 2 -39 16 -17 69 -11 81 8 15 24 -46 46
-83 31z"/>
<path d="M2473 2283 c-19 -7 -16 -33 5 -40 9 -4 19 -9 22 -13 3 -3 66 -34 140
-67 74 -34 191 -90 260 -124 69 -34 133 -62 143 -61 26 1 47 21 40 38 -4 12
-8 12 -21 2 -11 -9 -14 -10 -9 -1 5 8 -15 24 -63 48 -38 19 -70 32 -70 28 0
-5 -4 -3 -8 3 -12 18 -382 194 -406 193 -11 0 -27 -3 -33 -6z"/>
<path d="M4570 2182 c0 -41 65 -64 105 -38 39 26 32 44 -17 43 -24 0 -53 3
-65 7 -19 7 -23 5 -23 -12z"/>
<path d="M6134 1784 c-18 -14 -18 -15 4 -4 12 6 22 13 22 15 0 8 -5 6 -26 -11z"/>
<path d="M6034 1724 c-18 -14 -18 -15 4 -4 12 6 22 13 22 15 0 8 -5 6 -26 -11z"/>
<path d="M5990 1700 c-9 -6 -10 -10 -3 -10 6 0 15 5 18 10 8 12 4 12 -15 0z"/>
<path d="M5920 1660 c-8 -5 -12 -11 -10 -14 3 -2 14 2 24 10 22 15 10 19 -14
4z"/>
<path d="M5840 1610 c-9 -6 -10 -10 -3 -10 6 0 15 5 18 10 8 12 4 12 -15 0z"/>
<path d="M5792 1584 c-14 -16 -5 -18 17 -5 7 5 9 11 5 14 -5 3 -15 -1 -22 -9z"/>
<path d="M5730 1545 c-14 -8 -20 -14 -14 -15 5 0 19 7 30 15 24 18 16 19 -16
0z"/>
<path d="M5635 1480 c-10 -11 -14 -20 -9 -20 5 0 15 9 22 20 7 11 11 20 9 20
-2 0 -12 -9 -22 -20z"/>
<path d="M5600 1405 c0 -8 2 -15 4 -15 2 0 6 7 10 15 3 8 1 15 -4 15 -6 0 -10
-7 -10 -15z"/>
</g>
</svg>
